<svg version="1.1" id="Layer_1" xmlns="http://www.w3.org/2000/svg" xmlns:xlink="http://www.w3.org/1999/xlink" x="0px" y="0px"
	 width="100%" viewBox="0 0 512 512" enable-background="new 0 0 512 512" xml:space="preserve">
<path fill="#000000" opacity="1.000000" stroke="none" 
	d="
M513.000000,196.000000 
	C513.000000,301.974243 513.000000,407.448486 513.000000,512.961365 
	C342.400757,512.961365 171.801483,512.961365 1.101111,512.961365 
	C1.101111,342.442444 1.101111,171.884827 1.101111,1.163595 
	C171.666534,1.163595 342.333252,1.163595 513.000000,1.163595 
	C513.000000,65.865143 513.000000,130.682571 513.000000,196.000000 
M176.237808,158.744064 
	C165.016769,149.458633 153.875046,140.074982 142.544250,130.925461 
	C135.976273,125.621849 129.969452,120.147408 126.384026,112.118378 
	C123.616180,105.920189 120.088058,99.844681 115.834702,94.572411 
	C107.318085,84.015610 95.267456,79.277702 82.277336,77.121819 
	C75.799194,76.046684 69.127518,76.137627 62.543385,75.701111 
	C79.372612,89.334000 91.051834,105.951294 99.321259,124.953789 
	C103.839706,135.336853 107.029648,146.290451 111.063774,156.893524 
	C119.251160,178.412735 130.955917,197.775146 148.084122,213.335510 
	C153.647217,218.389389 160.626755,221.884125 166.996429,226.882538 
	C170.029449,236.019333 173.062469,245.156113 176.177109,254.538773 
	C156.195267,263.360565 139.647049,276.393066 126.269516,293.314117 
	C115.622269,306.781677 108.813683,322.245392 107.207146,339.264099 
	C105.474655,357.616974 107.926620,375.733459 113.695961,393.428528 
	C121.301544,416.755463 131.841599,438.712738 144.431412,459.623871 
	C153.678131,474.982330 164.096207,489.642609 174.237488,504.446014 
	C175.424118,506.178131 178.147736,507.791351 180.198776,507.842010 
	C191.507462,508.121368 202.828552,507.898254 215.054779,507.988678 
	C243.321518,507.941589 271.588257,507.894531 300.814270,507.982819 
	C311.475311,507.988556 322.141510,508.170654 332.793274,507.859283 
	C335.071442,507.792694 338.252655,506.562073 339.401031,504.808716 
	C352.515076,484.785950 366.009735,464.960327 378.006073,444.272186 
	C390.176178,423.284393 399.372864,400.862061 404.584473,376.959686 
	C407.854279,361.963287 408.759918,346.683533 405.703400,331.891937 
	C400.331879,305.897278 385.097656,285.708832 363.952606,270.099396 
	C355.812286,264.090118 346.872742,259.163452 338.036743,253.578766 
	C338.062592,253.468185 338.161041,252.828415 338.361359,252.222336 
	C341.240387,243.512848 344.133087,234.807907 347.753174,225.999069 
	C354.278107,221.389694 361.433105,217.453751 367.212036,212.047043 
	C385.963440,194.503510 398.177917,172.674789 405.922791,148.416733 
	C414.113678,122.761665 425.249847,99.050545 446.300446,81.204384 
	C448.069000,79.705032 449.858734,78.230644 451.638611,76.744659 
	C444.924438,76.066925 438.641144,76.145668 432.492096,77.094467 
	C423.261841,78.518692 414.487823,81.311783 406.622375,86.771126 
	C397.140167,93.352669 392.158142,103.041023 386.888123,112.783882 
	C384.045624,118.038872 380.457977,123.312210 376.000824,127.192223 
	C363.385406,138.174133 350.148163,148.441757 337.027679,158.062408 
	C336.686096,149.793808 336.817963,141.471527 335.888184,133.269608 
	C334.602692,121.929634 333.401123,110.454506 330.586395,99.440323 
	C325.146301,78.152908 316.612274,58.069653 302.874298,40.603420 
	C291.328247,25.923944 277.420197,14.099611 260.098877,6.715273 
	C258.339813,5.965365 255.738647,5.940255 253.972000,6.663163 
	C243.121445,11.103196 233.538010,17.663652 224.974945,25.588701 
	C208.401749,40.927116 196.952255,59.743286 189.174881,80.757584 
	C183.450592,96.224480 179.806168,112.312912 178.120758,128.712372 
	C177.089737,138.744598 177.227936,148.896973 176.237808,158.744064 
z"/>
<path fill="#FFB234" opacity="1.000000" stroke="none" 
	d="
M299.855011,507.847443 
	C271.588257,507.894531 243.321518,507.941589 214.547699,507.543762 
	C213.611191,505.667114 213.224030,504.221130 212.745972,502.805817 
	C205.776367,482.172333 197.983948,461.774963 191.997787,440.860474 
	C181.962372,405.798553 174.062454,370.282562 177.971893,333.319580 
	C181.029633,304.408997 190.646484,278.411835 211.215073,257.084869 
	C212.804169,255.437164 213.553635,252.048981 213.236206,249.663681 
	C212.185760,241.770309 210.467514,233.965820 209.445099,226.087692 
	C212.235214,225.993622 214.585770,225.939087 217.409607,225.926849 
	C223.931320,225.943039 229.979721,225.916931 236.494354,225.914978 
	C243.649155,225.912674 250.337738,225.886185 257.491547,225.901398 
	C264.707275,225.904816 271.457764,225.866547 278.658081,225.878754 
	C285.091980,225.905121 291.076050,225.880997 297.499878,225.896912 
	C300.299042,226.008850 302.658478,226.080734 304.977478,226.545013 
	C303.546143,234.294296 302.395355,241.708313 300.664459,248.984314 
	C299.779114,252.705826 300.508911,255.216202 303.225067,257.855438 
	C313.414917,267.756592 320.568665,279.719238 326.059204,292.726929 
	C338.311035,321.752930 338.802734,352.013672 334.710876,382.531952 
	C330.066956,417.167511 320.235016,450.548492 308.637451,483.429932 
	C305.760437,491.586914 302.785126,499.709198 299.855011,507.847443 
M197.033844,304.840912 
	C196.454758,309.017487 197.229111,311.776093 202.135635,313.214447 
	C208.992981,315.224731 211.939560,320.822266 211.977341,327.829376 
	C212.043823,340.156525 211.956680,352.484467 212.020691,364.811646 
	C212.049744,370.406982 213.588715,371.937775 219.178864,371.979736 
	C228.673843,372.051025 238.170959,372.093109 247.664505,371.958954 
	C250.891373,371.913391 252.115952,373.062927 252.040451,376.313904 
	C251.881927,383.140259 251.768814,389.983215 252.078384,396.799316 
	C252.274612,401.119720 250.536072,402.158539 246.548752,402.070557 
	C236.558411,401.850189 226.558487,401.898041 216.564987,402.032135 
	C205.162170,402.185059 195.601852,409.762909 192.912689,420.717560 
	C192.391113,422.842285 190.326202,426.090973 194.259598,426.738007 
	C197.237061,427.227783 201.019272,428.678467 202.619247,423.364838 
	C205.062866,415.249329 210.216766,412.028381 218.761414,412.009277 
	C230.589081,411.982849 242.416946,412.030365 254.244522,411.989105 
	C260.507660,411.967255 261.953552,410.546234 261.987518,404.384674 
	C262.038025,395.222626 262.129059,386.057495 261.941406,376.899048 
	C261.867340,373.283508 262.959106,371.807404 266.751587,371.938049 
	C273.573608,372.173096 280.415222,372.171875 287.237335,371.938385 
	C291.016663,371.809052 292.123444,373.260345 292.059357,376.887787 
	C291.879852,387.046387 291.902985,397.211578 292.030579,407.371826 
	C292.173889,418.782654 299.728882,428.368347 310.663483,431.068542 
	C312.784363,431.592255 316.062866,433.684631 316.717743,429.791412 
	C317.210052,426.864777 318.754913,423.018433 313.416290,421.399323 
	C305.121063,418.883484 302.032379,413.988129 302.010406,405.336517 
	C301.980347,393.508881 302.028717,381.681000 301.990356,369.853394 
	C301.969299,363.364227 300.596649,362.032562 293.987946,362.007141 
	C284.992340,361.972595 275.991302,361.817230 267.003113,362.077301 
	C262.945770,362.194672 261.803436,360.677948 261.938416,356.851654 
	C262.173218,350.196411 262.161011,343.521790 261.941986,336.865479 
	C261.821625,333.206757 263.037048,331.860870 266.785034,331.936768 
	C276.609650,332.135773 286.441162,332.040222 296.269592,331.990479 
	C308.541473,331.928406 317.701050,325.078949 321.006195,313.380402 
	C321.603210,311.267273 323.707214,307.999603 319.853149,307.298065 
	C316.958588,306.771179 313.074890,305.197113 311.426117,310.521912 
	C308.796204,319.015350 303.997162,321.977814 294.899384,321.992767 
	C283.071686,322.012207 271.243774,321.961792 259.416290,322.016418 
	C253.515320,322.043671 252.051285,323.524658 252.015030,329.444244 
	C251.957901,338.772827 251.883698,348.104004 252.052399,357.429810 
	C252.115326,360.908295 250.890289,362.147797 247.420227,362.050659 
	C240.595505,361.859558 233.751694,361.773376 226.935211,362.078217 
	C222.767593,362.264648 221.878387,360.501038 221.942215,356.783630 
	C222.116623,346.624878 222.133011,336.458649 221.956192,326.299805 
	C221.750671,314.491669 213.130890,304.451904 201.567261,302.518768 
	C200.204529,302.290955 198.606049,303.473297 197.033844,304.840912 
M240.955872,342.449402 
	C238.117386,342.656708 234.676239,341.996490 232.664642,343.394012 
	C231.441986,344.243408 231.449493,349.041870 232.711182,350.639526 
	C233.837860,352.066193 237.520737,352.009827 239.918060,351.625336 
	C240.835892,351.478149 241.550186,348.656433 241.917786,346.958374 
	C242.180191,345.746185 241.709503,344.375305 240.955872,342.449402 
M281.996796,347.444855 
	C282.702454,343.012329 280.703705,341.551453 276.425781,341.933655 
	C273.873108,342.161743 271.620422,342.289337 272.053131,345.612823 
	C272.366272,348.018311 270.403320,351.909088 275.149536,351.877991 
	C277.801453,351.860657 281.979736,353.815277 281.996796,347.444855 
M239.221588,382.044495 
	C237.739716,382.045074 236.072586,381.623474 234.829712,382.168793 
	C233.662186,382.681061 232.157181,384.239166 232.189896,385.293976 
	C232.257950,387.488403 232.684464,390.978943 233.982727,391.528229 
	C236.040894,392.399109 238.934662,391.295105 241.474884,391.026672 
	C241.014664,388.067474 240.554443,385.108307 239.221588,382.044495 
M272.011658,385.672363 
	C272.296265,387.571014 272.286377,390.983582 272.916504,391.106140 
	C275.637115,391.635376 278.545105,391.201111 281.384918,391.117493 
	C281.151428,388.196716 281.762543,384.785492 280.435333,382.499817 
	C279.225922,380.417023 273.396545,382.330658 272.011658,385.672363 
z"/>
<path fill="#FFC96F" opacity="1.000000" stroke="none" 
	d="
M300.334656,507.915131 
	C302.785126,499.709198 305.760437,491.586914 308.637451,483.429932 
	C320.235016,450.548492 330.066956,417.167511 334.710876,382.531952 
	C338.802734,352.013672 338.311035,321.752930 326.059204,292.726929 
	C320.568665,279.719238 313.414917,267.756592 303.225067,257.855438 
	C300.508911,255.216202 299.779114,252.705826 300.664459,248.984314 
	C302.395355,241.708313 303.546143,234.294296 305.443115,226.494537 
	C319.640259,226.068390 333.331390,226.085114 347.022491,226.101837 
	C344.133087,234.807907 341.240387,243.512848 338.361359,252.222336 
	C338.161041,252.828415 338.062592,253.468185 338.036743,253.578766 
	C346.872742,259.163452 355.812286,264.090118 363.952606,270.099396 
	C385.097656,285.708832 400.331879,305.897278 405.703400,331.891937 
	C408.759918,346.683533 407.854279,361.963287 404.584473,376.959686 
	C399.372864,400.862061 390.176178,423.284393 378.006073,444.272186 
	C366.009735,464.960327 352.515076,484.785950 339.401031,504.808716 
	C338.252655,506.562073 335.071442,507.792694 332.793274,507.859283 
	C322.141510,508.170654 311.475311,507.988556 300.334656,507.915131 
z"/>
<path fill="#FFC96F" opacity="1.000000" stroke="none" 
	d="
M209.005524,226.127213 
	C210.467514,233.965820 212.185760,241.770309 213.236206,249.663681 
	C213.553635,252.048981 212.804169,255.437164 211.215073,257.084869 
	C190.646484,278.411835 181.029633,304.408997 177.971893,333.319580 
	C174.062454,370.282562 181.962372,405.798553 191.997787,440.860474 
	C197.983948,461.774963 205.776367,482.172333 212.745972,502.805817 
	C213.224030,504.221130 213.611191,505.667114 214.093018,507.473145 
	C202.828552,507.898254 191.507462,508.121368 180.198776,507.842010 
	C178.147736,507.791351 175.424118,506.178131 174.237488,504.446014 
	C164.096207,489.642609 153.678131,474.982330 144.431412,459.623871 
	C131.841599,438.712738 121.301544,416.755463 113.695961,393.428528 
	C107.926620,375.733459 105.474655,357.616974 107.207146,339.264099 
	C108.813683,322.245392 115.622269,306.781677 126.269516,293.314117 
	C139.647049,276.393066 156.195267,263.360565 176.177109,254.538773 
	C173.062469,245.156113 170.029449,236.019333 167.446167,226.458267 
	C181.599121,226.065063 195.302322,226.096130 209.005524,226.127213 
z"/>
<path fill="#E36415" opacity="1.000000" stroke="none" 
	d="
M176.841003,158.995392 
	C177.227936,148.896973 177.089737,138.744598 178.120758,128.712372 
	C179.806168,112.312912 183.450592,96.224480 189.174881,80.757584 
	C196.952255,59.743286 208.401749,40.927116 224.974945,25.588701 
	C233.538010,17.663652 243.121445,11.103196 253.972000,6.663163 
	C255.738647,5.940255 258.339813,5.965365 260.098877,6.715273 
	C277.420197,14.099611 291.328247,25.923944 302.874298,40.603420 
	C316.612274,58.069653 325.146301,78.152908 330.586395,99.440323 
	C333.401123,110.454506 334.602692,121.929634 335.888184,133.269608 
	C336.817963,141.471527 336.686096,149.793808 336.991394,158.857956 
	C333.323853,163.378128 329.692535,167.102753 325.716919,170.937378 
	C315.835724,175.684448 306.298859,180.321487 296.802368,184.494171 
	C296.337341,174.285233 296.754120,164.384247 295.133392,154.828827 
	C291.816833,135.275360 283.350189,117.506760 273.274445,100.597641 
	C268.381287,92.385880 262.486359,84.771065 256.724854,77.021835 
	C247.429031,92.265060 237.388428,106.862442 229.827957,122.647705 
	C224.186371,134.426651 221.077148,147.586655 218.138977,160.428787 
	C216.395935,168.047348 217.172668,176.242416 216.432434,184.135376 
	C213.087799,183.098297 209.980774,182.404907 207.195877,181.049576 
	C200.688049,177.882385 194.334900,174.397354 187.944397,171.020233 
	C187.969681,170.999420 188.000793,171.057053 187.800507,170.824524 
	C187.241745,170.393707 186.883286,170.195404 186.277954,169.808411 
	C182.967712,166.078262 179.904358,162.536819 176.841003,158.995392 
M304.952271,115.867828 
	C312.375946,116.158783 313.671844,115.259468 312.750153,110.081802 
	C309.309326,90.751678 301.903564,73.145737 289.739227,57.630157 
	C288.135284,55.584328 286.378937,53.962643 284.102081,56.520691 
	C282.243958,58.608273 278.211273,60.077259 281.642517,64.128654 
	C293.368378,77.973816 299.262817,94.448448 302.926453,111.908310 
	C303.188171,113.155533 303.757477,114.338203 304.952271,115.867828 
M230.128571,65.616035 
	C234.914307,55.311092 240.640152,45.610245 248.865128,37.636703 
	C252.793915,33.828045 248.373688,32.088654 247.010696,29.849464 
	C245.226395,26.918179 243.412582,29.036873 241.858124,30.569313 
	C228.007568,44.223709 220.071106,61.332211 213.497971,79.224747 
	C211.975784,83.368294 215.328094,83.770248 217.915466,84.830521 
	C220.646896,85.949844 222.059158,85.280304 223.119278,82.384079 
	C225.114029,76.934456 227.553787,71.647728 230.128571,65.616035 
z"/>
<path fill="#9ABD2D" opacity="1.000000" stroke="none" 
	d="
M326.061218,170.827377 
	C329.692535,167.102753 333.323853,163.378128 337.055481,159.322113 
	C350.148163,148.441757 363.385406,138.174133 376.000824,127.192223 
	C380.457977,123.312210 384.045624,118.038872 386.888123,112.783882 
	C392.158142,103.041023 397.140167,93.352669 406.622375,86.771126 
	C414.487823,81.311783 423.261841,78.518692 432.492096,77.094467 
	C438.641144,76.145668 444.924438,76.066925 451.638611,76.744659 
	C449.858734,78.230644 448.069000,79.705032 446.300446,81.204384 
	C425.249847,99.050545 414.113678,122.761665 405.922791,148.416733 
	C398.177917,172.674789 385.963440,194.503510 367.212036,212.047043 
	C361.433105,217.453751 354.278107,221.389694 347.387817,226.050446 
	C333.331390,226.085114 319.640259,226.068390 305.483521,226.102142 
	C302.658478,226.080734 300.299042,226.008850 297.567688,225.541077 
	C302.313782,206.117096 311.512421,189.254425 324.153107,174.201324 
	C324.969971,173.228531 325.433380,171.958908 326.061218,170.827377 
z"/>
<path fill="#B3D34C" opacity="1.000000" stroke="none" 
	d="
M176.539398,158.869720 
	C179.904358,162.536819 182.967712,166.078262 186.474197,170.056732 
	C187.278488,170.681534 187.639633,170.869293 188.000793,171.057053 
	C188.000793,171.057053 187.969681,170.999420 187.996674,171.361664 
	C201.377518,187.793579 211.749512,205.455063 216.936310,225.884552 
	C214.585770,225.939087 212.235214,225.993622 209.445099,226.087692 
	C195.302322,226.096130 181.599121,226.065063 167.427170,226.062988 
	C160.626755,221.884125 153.647217,218.389389 148.084122,213.335510 
	C130.955917,197.775146 119.251160,178.412735 111.063774,156.893524 
	C107.029648,146.290451 103.839706,135.336853 99.321259,124.953789 
	C91.051834,105.951294 79.372612,89.334000 62.543385,75.701111 
	C69.127518,76.137627 75.799194,76.046684 82.277336,77.121819 
	C95.267456,79.277702 107.318085,84.015610 115.834702,94.572411 
	C120.088058,99.844681 123.616180,105.920189 126.384026,112.118378 
	C129.969452,120.147408 135.976273,125.621849 142.544250,130.925461 
	C153.875046,140.074982 165.016769,149.458633 176.539398,158.869720 
z"/>
<path fill="#9ABD2D" opacity="1.000000" stroke="none" 
	d="
M257.044922,76.886009 
	C262.486359,84.771065 268.381287,92.385880 273.274445,100.597641 
	C283.350189,117.506760 291.816833,135.275360 295.133392,154.828827 
	C296.754120,164.384247 296.337341,174.285233 296.572937,184.816376 
	C296.203705,186.749603 296.145081,187.901505 295.998840,189.042160 
	C294.172241,203.286896 290.226349,216.510834 278.208252,225.828278 
	C271.457764,225.866547 264.707275,225.904816 257.484375,225.445297 
	C257.022919,175.593658 257.033905,126.239838 257.044922,76.886009 
z"/>
<path fill="#B3D34C" opacity="1.000000" stroke="none" 
	d="
M256.724854,77.021835 
	C257.033905,126.239838 257.022919,175.593658 257.019104,225.403595 
	C250.337738,225.886185 243.649155,225.912674 236.314743,225.639633 
	C228.733795,220.441711 224.432983,213.588776 222.041672,205.668396 
	C219.914078,198.621506 218.529129,191.350418 216.816422,184.178268 
	C217.172668,176.242416 216.395935,168.047348 218.138977,160.428787 
	C221.077148,147.586655 224.186371,134.426651 229.827957,122.647705 
	C237.388428,106.862442 247.429031,92.265060 256.724854,77.021835 
z"/>
<path fill="#E36515" opacity="1.000000" stroke="none" 
	d="
M197.075348,304.421417 
	C198.606049,303.473297 200.204529,302.290955 201.567261,302.518768 
	C213.130890,304.451904 221.750671,314.491669 221.956192,326.299805 
	C222.133011,336.458649 222.116623,346.624878 221.942215,356.783630 
	C221.878387,360.501038 222.767593,362.264648 226.935211,362.078217 
	C233.751694,361.773376 240.595505,361.859558 247.420227,362.050659 
	C250.890289,362.147797 252.115326,360.908295 252.052399,357.429810 
	C251.883698,348.104004 251.957901,338.772827 252.015030,329.444244 
	C252.051285,323.524658 253.515320,322.043671 259.416290,322.016418 
	C271.243774,321.961792 283.071686,322.012207 294.899384,321.992767 
	C303.997162,321.977814 308.796204,319.015350 311.426117,310.521912 
	C313.074890,305.197113 316.958588,306.771179 319.853149,307.298065 
	C323.707214,307.999603 321.603210,311.267273 321.006195,313.380402 
	C317.701050,325.078949 308.541473,331.928406 296.269592,331.990479 
	C286.441162,332.040222 276.609650,332.135773 266.785034,331.936768 
	C263.037048,331.860870 261.821625,333.206757 261.941986,336.865479 
	C262.161011,343.521790 262.173218,350.196411 261.938416,356.851654 
	C261.803436,360.677948 262.945770,362.194672 267.003113,362.077301 
	C275.991302,361.817230 284.992340,361.972595 293.987946,362.007141 
	C300.596649,362.032562 301.969299,363.364227 301.990356,369.853394 
	C302.028717,381.681000 301.980347,393.508881 302.010406,405.336517 
	C302.032379,413.988129 305.121063,418.883484 313.416290,421.399323 
	C318.754913,423.018433 317.210052,426.864777 316.717743,429.791412 
	C316.062866,433.684631 312.784363,431.592255 310.663483,431.068542 
	C299.728882,428.368347 292.173889,418.782654 292.030579,407.371826 
	C291.902985,397.211578 291.879852,387.046387 292.059357,376.887787 
	C292.123444,373.260345 291.016663,371.809052 287.237335,371.938385 
	C280.415222,372.171875 273.573608,372.173096 266.751587,371.938049 
	C262.959106,371.807404 261.867340,373.283508 261.941406,376.899048 
	C262.129059,386.057495 262.038025,395.222626 261.987518,404.384674 
	C261.953552,410.546234 260.507660,411.967255 254.244522,411.989105 
	C242.416946,412.030365 230.589081,411.982849 218.761414,412.009277 
	C210.216766,412.028381 205.062866,415.249329 202.619247,423.364838 
	C201.019272,428.678467 197.237061,427.227783 194.259598,426.738007 
	C190.326202,426.090973 192.391113,422.842285 192.912689,420.717560 
	C195.601852,409.762909 205.162170,402.185059 216.564987,402.032135 
	C226.558487,401.898041 236.558411,401.850189 246.548752,402.070557 
	C250.536072,402.158539 252.274612,401.119720 252.078384,396.799316 
	C251.768814,389.983215 251.881927,383.140259 252.040451,376.313904 
	C252.115952,373.062927 250.891373,371.913391 247.664505,371.958954 
	C238.170959,372.093109 228.673843,372.051025 219.178864,371.979736 
	C213.588715,371.937775 212.049744,370.406982 212.020691,364.811646 
	C211.956680,352.484467 212.043823,340.156525 211.977341,327.829376 
	C211.939560,320.822266 208.992981,315.224731 202.135635,313.214447 
	C197.229111,311.776093 196.454758,309.017487 197.075348,304.421417 
z"/>
<path fill="#B25011" opacity="1.000000" stroke="none" 
	d="
M216.432434,184.135376 
	C218.529129,191.350418 219.914078,198.621506 222.041672,205.668396 
	C224.432983,213.588776 228.733795,220.441711 235.848511,225.615479 
	C229.979721,225.916931 223.931320,225.943039 217.409607,225.926849 
	C211.749512,205.455063 201.377518,187.793579 187.971405,171.382477 
	C194.334900,174.397354 200.688049,177.882385 207.195877,181.049576 
	C209.980774,182.404907 213.087799,183.098297 216.432434,184.135376 
z"/>
<path fill="#B25011" opacity="1.000000" stroke="none" 
	d="
M278.658081,225.878754 
	C290.226349,216.510834 294.172241,203.286896 295.998840,189.042160 
	C296.145081,187.901505 296.203705,186.749603 296.532532,185.280731 
	C306.298859,180.321487 315.835724,175.684448 325.716919,170.937378 
	C325.433380,171.958908 324.969971,173.228531 324.153107,174.201324 
	C311.512421,189.254425 302.313782,206.117096 297.127930,225.501038 
	C291.076050,225.880997 285.091980,225.905121 278.658081,225.878754 
z"/>
<path fill="#E36415" opacity="1.000000" stroke="none" 
	d="
M241.260895,342.762329 
	C241.709503,344.375305 242.180191,345.746185 241.917786,346.958374 
	C241.550186,348.656433 240.835892,351.478149 239.918060,351.625336 
	C237.520737,352.009827 233.837860,352.066193 232.711182,350.639526 
	C231.449493,349.041870 231.441986,344.243408 232.664642,343.394012 
	C234.676239,341.996490 238.117386,342.656708 241.260895,342.762329 
z"/>
<path fill="#E36415" opacity="1.000000" stroke="none" 
	d="
M281.992493,347.888550 
	C281.979736,353.815277 277.801453,351.860657 275.149536,351.877991 
	C270.403320,351.909088 272.366272,348.018311 272.053131,345.612823 
	C271.620422,342.289337 273.873108,342.161743 276.425781,341.933655 
	C280.703705,341.551453 282.702454,343.012329 281.992493,347.888550 
z"/>
<path fill="#E36415" opacity="1.000000" stroke="none" 
	d="
M239.657898,382.096802 
	C240.554443,385.108307 241.014664,388.067474 241.474884,391.026672 
	C238.934662,391.295105 236.040894,392.399109 233.982727,391.528229 
	C232.684464,390.978943 232.257950,387.488403 232.189896,385.293976 
	C232.157181,384.239166 233.662186,382.681061 234.829712,382.168793 
	C236.072586,381.623474 237.739716,382.045074 239.657898,382.096802 
z"/>
<path fill="#E36415" opacity="1.000000" stroke="none" 
	d="
M272.028351,385.225677 
	C273.396545,382.330658 279.225922,380.417023 280.435333,382.499817 
	C281.762543,384.785492 281.151428,388.196716 281.384918,391.117493 
	C278.545105,391.201111 275.637115,391.635376 272.916504,391.106140 
	C272.286377,390.983582 272.296265,387.571014 272.028351,385.225677 
z"/>
<path fill="#B34F10" opacity="1.000000" stroke="none" 
	d="
M304.567993,115.709366 
	C303.757477,114.338203 303.188171,113.155533 302.926453,111.908310 
	C299.262817,94.448448 293.368378,77.973816 281.642517,64.128654 
	C278.211273,60.077259 282.243958,58.608273 284.102081,56.520691 
	C286.378937,53.962643 288.135284,55.584328 289.739227,57.630157 
	C301.903564,73.145737 309.309326,90.751678 312.750153,110.081802 
	C313.671844,115.259468 312.375946,116.158783 304.567993,115.709366 
z"/>
<path fill="#B34F10" opacity="1.000000" stroke="none" 
	d="
M229.968536,65.954651 
	C227.553787,71.647728 225.114029,76.934456 223.119278,82.384079 
	C222.059158,85.280304 220.646896,85.949844 217.915466,84.830521 
	C215.328094,83.770248 211.975784,83.368294 213.497971,79.224747 
	C220.071106,61.332211 228.007568,44.223709 241.858124,30.569313 
	C243.412582,29.036873 245.226395,26.918179 247.010696,29.849464 
	C248.373688,32.088654 252.793915,33.828045 248.865128,37.636703 
	C240.640152,45.610245 234.914307,55.311092 229.968536,65.954651 
z"/>
<path fill="#B25011" opacity="1.000000" stroke="none" 
	d="
M187.800507,170.824524 
	C187.639633,170.869293 187.278488,170.681534 186.721069,170.245438 
	C186.883286,170.195404 187.241745,170.393707 187.800507,170.824524 
z"/>
</svg>